<svg width="48" height="48" viewBox="0 0 48 48" fill="none" xmlns="http://www.w3.org/2000/svg">
<path d="M36 4.8H45.6C46.2365 4.8 46.847 5.05286 47.2971 5.50294C47.7471 5.95303 48 6.56348 48 7.2V45.6C48 46.2365 47.7471 46.847 47.2971 47.2971C46.847 47.7471 46.2365 48 45.6 48H2.4C1.76348 48 1.15303 47.7471 0.702944 47.2971C0.252856 46.847 0 46.2365 0 45.6V7.2C0 6.56348 0.252856 5.95303 0.702944 5.50294C1.15303 5.05286 1.76348 4.8 2.4 4.8H12V0H16.8V4.8H31.2V0H36V4.8ZM31.2 9.6H16.8V14.4H12V9.6H4.8V19.2H43.2V9.6H36V14.4H31.2V9.6ZM43.2 24H4.8V43.2H43.2V24Z" fill="#09121F"/>
</svg>
